<svg xmlns="http://www.w3.org/2000/svg" width="1600" height="900" viewBox="0 0 1600 900" role="img" aria-label="Fim do visto americano para brasileiros, proposta entre Brasil e Estados Unidos">
  <defs>
    <linearGradient id="bg" x1="0" x2="1" y1="0" y2="1">
      <stop offset="0" stop-color="#08111f"/>
      <stop offset=".55" stop-color="#13345f"/>
      <stop offset="1" stop-color="#0f172a"/>
    </linearGradient>
    <linearGradient id="green" x1="0" x2="1">
      <stop offset="0" stop-color="#22c55e"/>
      <stop offset="1" stop-color="#facc15"/>
    </linearGradient>
  </defs>
  <rect width="1600" height="900" fill="url(#bg)"/>
  <path d="M0 140 L1600 0 L1600 250 L0 390 Z" fill="#ffffff" opacity=".10"/>
  <path d="M0 690 L1600 500 L1600 900 L0 900 Z" fill="#16a34a" opacity=".20"/>
  <rect x="98" y="84" width="250" height="56" rx="28" fill="#f59e0b"/>
  <text x="132" y="124" font-family="Arial, Helvetica, sans-serif" font-size="30" font-weight="900" fill="#111827">CHECAGEM</text>
  <text x="95" y="255" font-family="Arial, Helvetica, sans-serif" font-size="92" font-weight="900" fill="#fff">FIM DO VISTO</text>
  <text x="95" y="360" font-family="Arial, Helvetica, sans-serif" font-size="92" font-weight="900" fill="url(#green)">BRASIL × EUA?</text>
  <text x="100" y="450" font-family="Arial, Helvetica, sans-serif" font-size="44" font-weight="800" fill="#e5e7eb">O que é proposta e o que é regra oficial</text>
  <rect x="102" y="520" width="780" height="104" rx="20" fill="#020617" opacity=".82"/>
  <text x="136" y="582" font-family="Arial, Helvetica, sans-serif" font-size="40" font-weight="900" fill="#fff">Brasileiros ainda precisam conferir</text>
  <text x="136" y="630" font-family="Arial, Helvetica, sans-serif" font-size="34" font-weight="700" fill="#facc15">DS-160 • ESTA • Visa Waiver Program</text>
  <g transform="translate(1070 220)">
    <rect x="0" y="0" width="330" height="430" rx="30" fill="#f8fafc"/>
    <rect x="38" y="65" width="254" height="44" rx="8" fill="#1d4ed8"/>
    <rect x="38" y="135" width="254" height="24" rx="6" fill="#cbd5e1"/>
    <rect x="38" y="182" width="254" height="24" rx="6" fill="#cbd5e1"/>
    <rect x="38" y="229" width="180" height="24" rx="6" fill="#cbd5e1"/>
    <circle cx="238" cy="310" r="60" fill="#ef4444"/>
    <text x="205" y="326" font-family="Arial, Helvetica, sans-serif" font-size="46" font-weight="900" fill="#fff">?</text>
    <text x="64" y="374" font-family="Arial, Helvetica, sans-serif" font-size="34" font-weight="900" fill="#0f172a">VISA</text>
  </g>
</svg>
